REM DIRINDEX 1\5,1\2\6,1\2\7,1\3\8,1\3\9,1\4\10,1\4\11,1\4\12
REM DIRNAME cjc026,folder01,folder02,folder03,folder04,folder05,folder06,folder07,folder08,folder09,folder10,folder11
TITLE ""
FILE "EJE_DB3000_5th_4B_27.mp3" MP3
  TRACK 01 AUDIO
    TITLE "0:"
    INDEX 01 00:00:00
  TRACK 02 AUDIO
    TITLE "10:cjc026_09207"
    INDEX 01 00:00:10
  TRACK 03 AUDIO
    TITLE "0:"
    INDEX 01 00:01:35
  TRACK 04 AUDIO
    TITLE "11:cjc026_09208"
    INDEX 01 00:01:70
  TRACK 05 AUDIO
    TITLE "0:"
    INDEX 01 00:03:47
  TRACK 06 AUDIO
    TITLE "12:cjc026_09209"
    INDEX 01 00:04:10
  TRACK 07 AUDIO
    TITLE "0:"
    INDEX 01 00:05:35
  TRACK 08 AUDIO
    TITLE "10:cjc026_09210"
    INDEX 01 00:05:73
  TRACK 09 AUDIO
    TITLE "0:"
    INDEX 01 00:07:17
  TRACK 10 AUDIO
    TITLE "11:cjc026_09211"
    INDEX 01 00:07:55
  TRACK 11 AUDIO
    TITLE "0:"
    INDEX 01 00:08:66
  TRACK 12 AUDIO
    TITLE "12:cjc026_09212"
    INDEX 01 00:09:29
  TRACK 13 AUDIO
    TITLE "0:"
    INDEX 01 00:10:49
  TRACK 14 AUDIO
    TITLE "10:cjc026_09213"
    INDEX 01 00:11:09
  TRACK 15 AUDIO
    TITLE "0:"
    INDEX 01 00:12:28
  TRACK 16 AUDIO
    TITLE "11:cjc026_09214"
    INDEX 01 00:12:63
  TRACK 17 AUDIO
    TITLE "0:"
    INDEX 01 00:14:27
  TRACK 18 AUDIO
    TITLE "12:cjc026_09215"
    INDEX 01 00:14:59
  TRACK 19 AUDIO
    TITLE "0:"
    INDEX 01 00:16:04
  TRACK 20 AUDIO
    TITLE "10:cjc026_09216"
    INDEX 01 00:16:41
  TRACK 21 AUDIO
    TITLE "0:"
    INDEX 01 00:17:64
  TRACK 22 AUDIO
    TITLE "11:cjc026_09217"
    INDEX 01 00:18:24
  TRACK 23 AUDIO
    TITLE "0:"
    INDEX 01 00:20:09
  TRACK 24 AUDIO
    TITLE "12:cjc026_09218"
    INDEX 01 00:20:44
  TRACK 25 AUDIO
    TITLE "0:"
    INDEX 01 00:21:69
  TRACK 26 AUDIO
    TITLE "10:cjc026_09219"
    INDEX 01 00:22:26
  TRACK 27 AUDIO
    TITLE "0:"
    INDEX 01 00:23:43
  TRACK 28 AUDIO
    TITLE "11:cjc026_09220"
    INDEX 01 00:24:09
  TRACK 29 AUDIO
    TITLE "0:"
    INDEX 01 00:25:42
  TRACK 30 AUDIO
    TITLE "12:cjc026_09221"
    INDEX 01 00:26:02
  TRACK 31 AUDIO
    TITLE "0:"
    INDEX 01 00:27:16
  TRACK 32 AUDIO
    TITLE "10:cjc026_09222"
    INDEX 01 00:27:54
  TRACK 33 AUDIO
    TITLE "0:"
    INDEX 01 00:28:70
  TRACK 34 AUDIO
    TITLE "11:cjc026_09223"
    INDEX 01 00:29:33
  TRACK 35 AUDIO
    TITLE "0:"
    INDEX 01 00:30:55
  TRACK 36 AUDIO
    TITLE "12:cjc026_09224"
    INDEX 01 00:31:18
  TRACK 37 AUDIO
    TITLE "0:"
    INDEX 01 00:32:32
  TRACK 38 AUDIO
    TITLE "10:cjc026_09225"
    INDEX 01 00:32:70
  TRACK 39 AUDIO
    TITLE "0:"
    INDEX 01 00:34:06
  TRACK 40 AUDIO
    TITLE "11:cjc026_09226"
    INDEX 01 00:34:47
  TRACK 41 AUDIO
    TITLE "0:"
    INDEX 01 00:36:02
  TRACK 42 AUDIO
    TITLE "12:cjc026_09227"
    INDEX 01 00:36:37
  TRACK 43 AUDIO
    TITLE "0:"
    INDEX 01 00:37:49
  TRACK 44 AUDIO
    TITLE "10:cjc026_09228"
    INDEX 01 00:38:14
  TRACK 45 AUDIO
    TITLE "0:"
    INDEX 01 00:39:31
  TRACK 46 AUDIO
    TITLE "11:cjc026_09229"
    INDEX 01 00:39:66
  TRACK 47 AUDIO
    TITLE "0:"
    INDEX 01 00:41:24
  TRACK 48 AUDIO
    TITLE "12:cjc026_09230"
    INDEX 01 00:41:59
  TRACK 49 AUDIO
    TITLE "0:"
    INDEX 01 00:43:01
  TRACK 50 AUDIO
    TITLE "10:cjc026_09231"
    INDEX 01 00:43:39
  TRACK 51 AUDIO
    TITLE "0:"
    INDEX 01 00:44:66
  TRACK 52 AUDIO
    TITLE "11:cjc026_09232"
    INDEX 01 00:45:29
  TRACK 53 AUDIO
    TITLE "0:"
    INDEX 01 00:46:62
  TRACK 54 AUDIO
    TITLE "12:cjc026_09233"
    INDEX 01 00:47:25
  TRACK 55 AUDIO
    TITLE "0:"
    INDEX 01 00:48:53
  TRACK 56 AUDIO
    TITLE "10:cjc026_09234"
    INDEX 01 00:49:13
  TRACK 57 AUDIO
    TITLE "0:"
    INDEX 01 00:50:48
  TRACK 58 AUDIO
    TITLE "11:cjc026_09235"
    INDEX 01 00:51:06
  TRACK 59 AUDIO
    TITLE "0:"
    INDEX 01 00:52:39
  TRACK 60 AUDIO
    TITLE "12:cjc026_09236"
    INDEX 01 00:52:69
  TRACK 61 AUDIO
    TITLE "0:"
    INDEX 01 00:54:29
  TRACK 62 AUDIO
    TITLE "10:cjc026_09237"
    INDEX 01 00:54:64
  TRACK 63 AUDIO
    TITLE "0:"
    INDEX 01 00:56:09
  TRACK 64 AUDIO
    TITLE "11:cjc026_09238"
    INDEX 01 00:56:44
  TRACK 65 AUDIO
    TITLE "0:"
    INDEX 01 00:58:02
  TRACK 66 AUDIO
    TITLE "12:cjc026_09239"
    INDEX 01 00:58:37
  TRACK 67 AUDIO
    TITLE "0:"
    INDEX 01 00:59:57
  TRACK 68 AUDIO
    TITLE "10:cjc026_09240"
    INDEX 01 01:00:17
  TRACK 69 AUDIO
    TITLE "0:"
    INDEX 01 01:01:44
  TRACK 70 AUDIO
    TITLE "11:cjc026_09241"
    INDEX 01 01:02:04
  TRACK 71 AUDIO
    TITLE "0:"
    INDEX 01 01:03:32
  TRACK 72 AUDIO
    TITLE "12:cjc026_09242"
    INDEX 01 01:03:67
  TRACK 73 AUDIO
    TITLE "0:"
    INDEX 01 01:05:17
  TRACK 74 AUDIO
    TITLE "10:cjc026_09243"
    INDEX 01 01:05:57
  TRACK 75 AUDIO
    TITLE "0:"
    INDEX 01 01:06:69
  TRACK 76 AUDIO
    TITLE "11:cjc026_09244"
    INDEX 01 01:07:32
  TRACK 77 AUDIO
    TITLE "0:"
    INDEX 01 01:08:73
  TRACK 78 AUDIO
    TITLE "12:cjc026_09245"
    INDEX 01 01:09:36
  TRACK 79 AUDIO
    TITLE "0:"
    INDEX 01 01:10:47
